{
    "asset" : {
        "generator" : "Khronos glTF Blender I/O v0.9.36",
        "version" : "2.0"
    },
    "scene" : 0,
    "scenes" : [
        {
            "name" : "Scene",
            "nodes" : [
                0,
                1,
                2,
                3,
                4
            ]
        }
    ],
    "nodes" : [
        {
            "mesh" : 0,
            "name" : "Sidewalk",
            "translation" : [
                0,
                -0.8635523319244385,
                0
            ]
        },
        {
            "mesh" : 1,
            "name" : "PuttZone",
            "translation" : [
                10.140152931213379,
                -0.8583572506904602,
                -9.992420196533203
            ]
        },
        {
            "mesh" : 2,
            "name" : "Hole",
            "scale" : [
                0.20286405086517334,
                0.20286405086517334,
                0.20286405086517334
            ],
            "translation" : [
                19.892780303955078,
                0.1893681287765503,
                2.926786422729492
            ]
        },
        {
            "name" : "Sun",
            "rotation" : [
                -0.4094575047492981,
                0.5190068483352661,
                0.02216995321214199,
                0.749989926815033
            ],
            "translation" : [
                -21.250642776489258,
                13.048294067382812,
                -16.905803680419922
            ]
        },
        {
            "mesh" : 3,
            "name" : "Bounds",
            "scale" : [
                1,
                0.10000002384185791,
                1
            ],
            "translation" : [
                10.140152931213379,
                0.2898300290107727,
                -9.992420196533203
            ]
        }
    ],
    "materials" : [
        {
            "doubleSided" : true,
            "name" : "Sidewalk",
            "pbrMetallicRoughness" : {
                "baseColorFactor" : [
                    0.5837565064430237,
                    0.7602509260177612,
                    0.7279975414276123,
                    1
                ],
                "metallicFactor" : 0,
                "roughnessFactor" : 0.5
            }
        },
        {
            "doubleSided" : true,
            "name" : "PuttZone",
            "pbrMetallicRoughness" : {
                "baseColorFactor" : [
                    0.21233928203582764,
                    0.8000000715255737,
                    0.4193723797798157,
                    1
                ],
                "metallicFactor" : 0,
                "roughnessFactor" : 0.8004695177078247
            }
        },
        {
            "doubleSided" : true,
            "name" : "Hole",
            "pbrMetallicRoughness" : {
                "baseColorFactor" : [
                    0,
                    0,
                    0,
                    1
                ],
                "metallicFactor" : 0,
                "roughnessFactor" : 1
            }
        },
        {
            "doubleSided" : true,
            "name" : "Bounds",
            "pbrMetallicRoughness" : {
                "baseColorFactor" : [
                    0.8000000715255737,
                    0.6831508278846741,
                    0.2062612920999527,
                    1
                ],
                "metallicFactor" : 0,
                "roughnessFactor" : 0.5
            }
        }
    ],
    "meshes" : [
        {
            "name" : "Cube",
            "primitives" : [
                {
                    "attributes" : {
                        "POSITION" : 0,
                        "NORMAL" : 1,
                        "TEXCOORD_0" : 2
                    },
                    "indices" : 3,
                    "material" : 0
                }
            ]
        },
        {
            "name" : "Cube.003",
            "primitives" : [
                {
                    "attributes" : {
                        "POSITION" : 4,
                        "NORMAL" : 5,
                        "TEXCOORD_0" : 6
                    },
                    "indices" : 7,
                    "material" : 1
                }
            ]
        },
        {
            "name" : "Circle",
            "primitives" : [
                {
                    "attributes" : {
                        "POSITION" : 8,
                        "NORMAL" : 9,
                        "TEXCOORD_0" : 10
                    },
                    "indices" : 11,
                    "material" : 2
                }
            ]
        },
        {
            "name" : "Cube.002",
            "primitives" : [
                {
                    "attributes" : {
                        "POSITION" : 12,
                        "NORMAL" : 13,
                        "TEXCOORD_0" : 14
                    },
                    "indices" : 15,
                    "material" : 3
                }
            ]
        }
    ],
    "accessors" : [
        {
            "bufferView" : 0,
            "componentType" : 5126,
            "count" : 64,
            "max" : [
                9,
                1,
                1
            ],
            "min" : [
                -1,
                -1,
                -11
            ],
            "type" : "VEC3"
        },
        {
            "bufferView" : 1,
            "componentType" : 5126,
            "count" : 64,
            "type" : "VEC3"
        },
        {
            "bufferView" : 2,
            "componentType" : 5126,
            "count" : 64,
            "type" : "VEC2"
        },
        {
            "bufferView" : 3,
            "componentType" : 5123,
            "count" : 108,
            "type" : "SCALAR"
        },
        {
            "bufferView" : 4,
            "componentType" : 5126,
            "count" : 114,
            "max" : [
                10.7526273727417,
                1,
                13.919206619262695
            ],
            "min" : [
                -1,
                -1,
                -1
            ],
            "type" : "VEC3"
        },
        {
            "bufferView" : 5,
            "componentType" : 5126,
            "count" : 114,
            "type" : "VEC3"
        },
        {
            "bufferView" : 6,
            "componentType" : 5126,
            "count" : 114,
            "type" : "VEC2"
        },
        {
            "bufferView" : 7,
            "componentType" : 5123,
            "count" : 252,
            "type" : "SCALAR"
        },
        {
            "bufferView" : 8,
            "componentType" : 5126,
            "count" : 192,
            "max" : [
                1.0000001192092896,
                0.07083113491535187,
                1.0000001192092896
            ],
            "min" : [
                -1.0000001192092896,
                -0.3605867028236389,
                -1.0000001192092896
            ],
            "type" : "VEC3"
        },
        {
            "bufferView" : 9,
            "componentType" : 5126,
            "count" : 192,
            "type" : "VEC3"
        },
        {
            "bufferView" : 10,
            "componentType" : 5126,
            "count" : 192,
            "type" : "VEC2"
        },
        {
            "bufferView" : 11,
            "componentType" : 5123,
            "count" : 372,
            "type" : "SCALAR"
        },
        {
            "bufferView" : 12,
            "componentType" : 5126,
            "count" : 306,
            "max" : [
                10.7526273727417,
                1,
                13.919206619262695
            ],
            "min" : [
                -1,
                -1,
                -1
            ],
            "type" : "VEC3"
        },
        {
            "bufferView" : 13,
            "componentType" : 5126,
            "count" : 306,
            "type" : "VEC3"
        },
        {
            "bufferView" : 14,
            "componentType" : 5126,
            "count" : 306,
            "type" : "VEC2"
        },
        {
            "bufferView" : 15,
            "componentType" : 5123,
            "count" : 480,
            "type" : "SCALAR"
        }
    ],
    "bufferViews" : [
        {
            "buffer" : 0,
            "byteLength" : 768,
            "byteOffset" : 0
        },
        {
            "buffer" : 0,
            "byteLength" : 768,
            "byteOffset" : 768
        },
        {
            "buffer" : 0,
            "byteLength" : 512,
            "byteOffset" : 1536
        },
        {
            "buffer" : 0,
            "byteLength" : 216,
            "byteOffset" : 2048
        },
        {
            "buffer" : 0,
            "byteLength" : 1368,
            "byteOffset" : 2264
        },
        {
            "buffer" : 0,
            "byteLength" : 1368,
            "byteOffset" : 3632
        },
        {
            "buffer" : 0,
            "byteLength" : 912,
            "byteOffset" : 5000
        },
        {
            "buffer" : 0,
            "byteLength" : 504,
            "byteOffset" : 5912
        },
        {
            "buffer" : 0,
            "byteLength" : 2304,
            "byteOffset" : 6416
        },
        {
            "buffer" : 0,
            "byteLength" : 2304,
            "byteOffset" : 8720
        },
        {
            "buffer" : 0,
            "byteLength" : 1536,
            "byteOffset" : 11024
        },
        {
            "buffer" : 0,
            "byteLength" : 744,
            "byteOffset" : 12560
        },
        {
            "buffer" : 0,
            "byteLength" : 3672,
            "byteOffset" : 13304
        },
        {
            "buffer" : 0,
            "byteLength" : 3672,
            "byteOffset" : 16976
        },
        {
            "buffer" : 0,
            "byteLength" : 2448,
            "byteOffset" : 20648
        },
        {
            "buffer" : 0,
            "byteLength" : 960,
            "byteOffset" : 23096
        }
    ],
    "buffers" : [
        {
            "byteLength" : 24056,
            "uri" : "data:application/octet-stream;base64,"
        }
    ]
}
